# xmcd CD database file
#
# Track frame offsets:
#	150
#	15504
#	31484
#	51761
#	70130
#	99227
#	117579
#	136372
#	153795
#	171631
#	197330
#
# Disc length: 2907 seconds
#
# Revision: 0
# Processed by: cddbd v1.5.2PL0 Copyright (c) Steve Scherf et al.
# Submitted via: CDex 1.70beta2
#
DISCID=8d0b590b
DTITLE=The Hitman Blues Band - Blooz Town
DYEAR=2000
DGENRE=Blues
TTITLE0=Don't Know 
TTITLE1=1000 feet ahead
TTITLE2=green thing
TTITLE3=Aint nothin Cooler than the Blues
TTITLE4=Sunshine Romeo
TTITLE5=Busted
TTITLE6=Catch 22 Blues
TTITLE7=Whiskey Bottom Road
TTITLE8=If I could do it all over again
TTITLE9=Raining up in Harlem
TTITLE10=Bonus Track
EXTD=YEAR: 2000
EXTT0=
EXTT1=
EXTT2=
EXTT3=
EXTT4=
EXTT5=
EXTT6=
EXTT7=
EXTT8=
EXTT9=
EXTT10=
PLAYORDER=
